# xmcd
#
# Track frame offsets:
#	150
#	35977
#	78324
#	109053
#	141152
#	189710
#
# Disc length: 3298 seconds
#
# Revision: 0
# Processed by: cddbd v1.5.2PL0 Copyright (c) Steve Scherf et al.
# Submitted via: audiograbber 1.83.01
#
DISCID=520ce006
DTITLE=Grateful Dead - 94-10-09 USAir Arena, Landover MD
DYEAR=1900
DGENRE=
TTITLE0=Here Comes Sunshine
TTITLE1=Samson and Delilah
TTITLE2=Long Way To Go Home
TTITLE3=Ship Of Fools
TTITLE4=Saint Of Circumstance
TTITLE5=Drums
EXTD=
EXTT0=
EXTT1=
EXTT2=
EXTT3=
EXTT4=
EXTT5=
PLAYORDER=
